<svg xmlns="http://www.w3.org/2000/svg" viewBox="-16 -16 288 288" width="512" height="512" role="img" aria-label="Mascotte Wobbi"><g><defs><radialGradient id="wobbi-depth-ghost-EDE7F7-soft" gradientUnits="userSpaceOnUse" cx="77" cy="46" r="225" fx="61" fy="31"><stop offset="0%" stop-color="#ffffff" stop-opacity="0.19"/><stop offset="44%" stop-color="#ffffff" stop-opacity="0.04"/><stop offset="72%" stop-color="#120b20" stop-opacity="0.035"/><stop offset="100%" stop-color="#120b20" stop-opacity="0.17"/></radialGradient></defs><g data-part="shadow" data-motion="shadow" transform="translate(128 238) scale(1 1) translate(-128 -238)"><ellipse cx="128" cy="238" rx="55" ry="6" fill="#30214c" opacity="0.1"/></g><g data-part="body" data-motion="body" transform="translate(0 0) translate(128 215) rotate(0) scale(1 1) translate(-128 -215)" opacity="1"><g data-part="head" data-motion="head" data-fit-shape="ghost"/><path d="M43 173 C43 90 70 40 128 40 C186 40 213 91 213 173 Q212 205 190 192 Q169 222 148 197 Q126 225 106 199 Q81 216 67 192 Q39 208 43 173Z" data-shape="ghost" fill="#EDE7F7" stroke="#ffffff" stroke-width="0" stroke-linejoin="round"/><path d="M43 173 C43 90 70 40 128 40 C186 40 213 91 213 173 Q212 205 190 192 Q169 222 148 197 Q126 225 106 199 Q81 216 67 192 Q39 208 43 173Z" fill="url(#wobbi-depth-ghost-EDE7F7-soft)" data-part="body-depth" data-depth="soft" pointer-events="none"/><g data-part="gaze" data-motion="gaze" transform="translate(0 0)"><g data-part="eyes" data-eyes="classic"><g data-eye-wrap="0"><g data-eye="0" data-expression-closed="false" opacity="1" style="transform-box: fill-box; transform-origin: center center; transform: scaleY(1);"><ellipse cx="102" cy="123" rx="22" ry="29" fill="#ffffff" data-part="eye-white" stroke="#9B7EDB" stroke-width="0"/><g data-part="pupil" data-motion="pupil" transform="translate(0 0)"><ellipse cx="104" cy="115" rx="9" ry="11" fill="#43276F"/><ellipse cx="100.58" cy="110.38" rx="2.6" ry="3.2" fill="#ffffff" opacity="0.96"/></g></g><path d="M82 123 Q102 130 122 123" fill="none" stroke="#111218" stroke-width="5" stroke-linecap="round" opacity="0" data-blink-line="0"/></g><g data-eye-wrap="1"><g data-eye="1" data-expression-closed="false" opacity="1" style="transform-box: fill-box; transform-origin: center center; transform: scaleY(1);"><ellipse cx="160" cy="123" rx="22" ry="29" fill="#ffffff" data-part="eye-white" stroke="#9B7EDB" stroke-width="0"/><g data-part="pupil" data-motion="pupil" transform="translate(0 0)"><ellipse cx="162" cy="115" rx="9" ry="11" fill="#43276F"/><ellipse cx="158.58" cy="110.38" rx="2.6" ry="3.2" fill="#ffffff" opacity="0.96"/></g></g><path d="M140 123 Q160 130 180 123" fill="none" stroke="#111218" stroke-width="5" stroke-linecap="round" opacity="0" data-blink-line="1"/></g></g></g><g data-part="accessory" data-motion="accessory" data-fit-shape="ghost" transform="translate(0 0)"/></g></g></svg>